PathFileType	4	(X/Y/Z)	T1_P1_NoVision_NoMovement_0_0-649.trc
DataRate	CameraRate	NumFrames	NumMarkers	Units	OrigDataRate	OrigDataStartFrame	OrigNumFrames
60	60	6	27	m	60	405	649
Frame#	Time	RHip			RKnee			RAnkle			RBigToe			RSmallToe			RHeel			LHip			LKnee			LAnkle			LBigToe			LSmallToe			LHeel			Neck			Head			Nose			RShoulder			RElbow			RWrist			RThumb			RIndex			RPinky			LShoulder			LElbow			LWrist			LThumb			LIndex			LPinky		
		X1	Y1	Z1	X2	Y2	Z2	X3	Y3	Z3	X4	Y4	Z4	X5	Y5	Z5	X6	Y6	Z6	X7	Y7	Z7	X8	Y8	Z8	X9	Y9	Z9	X10	Y10	Z10	X11	Y11	Z11	X12	Y12	Z12	X13	Y13	Z13	X14	Y14	Z14	X15	Y15	Z15	X16	Y16	Z16	X17	Y17	Z17	X18	Y18	Z18	X19	Y19	Z19	X20	Y20	Z20	X21	Y21	Z21	X22	Y22	Z22	X23	Y23	Z23	X24	Y24	Z24	X25	Y25	Z25	X26	Y26	Z26	X27	Y27	Z27
406	6.766666666666667	-69.89969504497748	3836.219269839388	-530.7661543782579	297.05773268239716	3978.921464774057	-531.826782873511	635.992041973868	4126.6025644547135	-525.9516374113074	727.4484135753851	4011.116714305766	-509.1011151290833	737.9831340714734	4078.0904171702	-611.2591407710006	663.6043199531981	4175.07656026563	-517.6282473544732	-104.53214478048514	3910.846909045965	-341.51914104465624	260.83821824984545	4026.8871186430206	-336.1146765478087	603.7467525572549	4253.09322753197	-358.52960982418784	678.0822032937916	4133.817342708281	-237.64300273698078	658.4037014454401	4231.140834825591	-225.1971043299375	636.9582964125818	4291.88379331424	-383.9686811136787	-622.3737980455825	3676.9778433855827	-450.62281524881126	-882.2133622270475	3477.420507978076	-365.7523720684784	-694.7865072202543	3493.700821203186	-317.16440458077875	-556.4616580262079	3607.8931647702802	-562.9664702400191	-284.05199428493347	3706.878105623679	-645.805113102381	-27.208825363553522	3717.2229902023155	-584.0881031333408	80.04717866011681	3774.7983024026685	-553.964176210686	103.06613704750605	3778.431149643102	-559.3639113273271	94.78096380973867	3790.188515869375	-591.1769518963589	-611.7881122379483	3797.2960237545353	-337.77724318210545	-384.2931340733412	3963.115201028225	-289.85533842414173	-136.95954909823547	3948.815177888617	-210.08858797973087	-13.13603986078957	3969.516959888814	-216.02564283829213	5.805583705297376	3961.9030001790766	-200.06050524811573	-10.464245517226654	4002.799030913151	-195.78623233862564
407	6.783333333333333	-70.70529544032685	3817.612987938503	-516.370372053019	296.2677637279106	3978.4840024957416	-525.4610510550383	642.1224599721303	4130.832900094442	-528.2342681425707	728.8943451904198	4016.5609075511334	-512.4298658646654	738.2591726211515	4078.500971056577	-611.3878651933983	658.410122758823	4175.669048547861	-518.4747349401229	-104.53119931422641	3910.780826411754	-341.4453865157712	260.714040560395	4026.6729388575886	-336.0237601561215	603.9650633265535	4253.622981399601	-358.7804628268549	679.2497223893582	4158.7120839854715	-259.101842602655	658.5076781622671	4232.073825428936	-225.65809987518426	638.7086393443886	4298.318287767249	-387.3679477166767	-622.4026493099873	3677.0472541575573	-450.65442121815346	-882.2691967754237	3477.4410046453063	-365.73485750919525	-694.6071614439938	3517.9276706698993	-316.8932859711963	-556.5100635120027	3607.8862321800298	-562.8941206977548	-283.9993992785223	3707.2257734460763	-646.0245477069474	-26.659152241327646	3716.535260954233	-588.977433033224	80.02824672051693	3775.089203125012	-554.0591253297409	102.96612957991536	3778.8457287511205	-559.4872296317094	99.14367395923455	3790.024233084427	-590.6637861569403	-611.8374319168739	3797.382582566866	-337.8634230029551	-378.80273888577364	3965.0194387659467	-289.3175160353674	-131.74522055623856	3950.993195377808	-209.5471090799831	-18.06733645223537	3966.2976674394854	-214.57092519672315	11.230517172340626	3990.03488749701	-203.81483120192544	-10.592621845416232	4002.9542465348404	-195.7125413250328
408	6.8	-70.71808582373848	3817.744305619411	-516.4254283547698	297.13197704926364	3979.7546033084705	-532.1368843568948	635.6411665343575	4126.008048700536	-525.925834005029	722.0090945288664	4011.9519732183785	-510.03186578830014	737.7941061160485	4077.758931857639	-611.0979051422872	653.4697644487841	4143.397117511498	-511.330952219016	-104.58826001191402	3910.712293900168	-341.4052902933911	260.73156189538486	4026.7828670430517	-336.0135718790169	592.6473391715132	4216.122121243628	-350.70460227278255	678.9968353864962	4158.2693171836945	-259.0691918409764	648.4646201613788	4202.923451993448	-222.02316269232443	626.6333172090519	4260.0888892042585	-379.2084848141405	-627.1289907876283	3675.9623937465094	-450.6617736485305	-882.2972194237493	3477.3773807235757	-365.7232113561474	-699.0684625569388	3515.132889689537	-316.0607193495633	-556.515407498028	3607.925750830833	-562.9429328062702	-284.03847834954973	3706.9909289667394	-645.8819710938936	-26.622104618994985	3716.716397270925	-589.0728584631721	79.96530566820775	3774.8075008762526	-553.848253307678	103.11195600518055	3778.7537949192233	-559.4069887192178	94.95450556877357	3790.3777588933594	-591.1495579019539	-615.672864244189	3823.289692821997	-342.8522495484132	-384.26426188601425	3963.2943725415375	-289.795825667274	-131.78999132289889	3950.736835186528	-209.3939621196622	-18.268342792393163	3965.5276720981497	-214.24407255887783	6.4669821202451345	3986.1297549471237	-202.3058167617179	-10.614898489374795	4002.622573549636	-195.5755154301436
409	6.816666666666666	-71.31095582606339	3816.618966548205	-509.82533694629245	300.6434977850931	4001.0754824711894	-547.8957550485712	635.777453545176	4126.4431566510275	-525.9357495209067	732.4224428195429	4032.660724519756	-524.3568960587111	737.7986217341444	4077.920817103589	-611.1508822898267	663.496725537901	4174.898239266716	-517.7140177602764	-104.61562202771793	3910.7094850599683	-341.3902839416449	260.64552527831125	4026.3863718954954	-335.85288671504986	603.7502025521792	4253.054946222071	-358.6052486121732	683.6626269901041	4158.114896888552	-251.8741959671961	658.3381064058324	4231.370937076407	-225.38806684533873	636.9816815866657	4291.886893050951	-384.2137107635573	-622.4477324598715	3677.1032099587464	-450.7145888468989	-877.2434750635928	3478.3153110658113	-365.19517917902834	-690.3481361879872	3496.193405787114	-317.9998149815459	-556.491144567746	3607.90594250594	-562.9786515960859	-284.2808653321615	3725.228728665447	-661.137449356347	-26.566224512643988	3716.531469613667	-588.9817301627887	80.09042963684819	3774.4622289065887	-553.6493251792872	107.99148166904821	3781.671335669461	-560.905046033612	94.83770324259856	3814.412933904946	-597.5460373260466	-615.7449189721372	3823.3096639014952	-342.9416231907405	-378.88995582322116	3965.082956209776	-289.2717811558751	-136.71700562686985	3947.1879568709387	-208.07997241639927	-18.25263887633024	3966.133885986046	-214.35809637032136	6.4825105481585235	3986.729324155158	-202.41252588962465	-15.659745473971766	3998.6178242195965	-194.17997326101778
410	6.833333333333333	-70.47761640206494	3834.9995938853704	-524.0030913394853	297.42743206096895	3979.63177706274	-532.3236812600256	635.7389882353388	4125.971685962909	-525.7066296495252	726.263607595105	4011.5485602322537	-503.00725229209746	737.6701782734202	4077.464282448978	-610.9154132734816	663.3913589643705	4174.33674813697	-517.4349428794808	-104.59305671761219	3910.6793856578556	-341.411568465625	260.5827877329237	4026.277172672188	-335.7567751238163	597.0223670320561	4248.201550572042	-356.4584288011628	679.1871508356121	4158.513970847941	-258.8752638206536	658.4098909270767	4231.718756335536	-225.4758029865852	636.9080540010748	4291.59224349379	-384.1723385350511	-622.4477514044866	3676.9861588527083	-450.6520485537084	-877.2119359784755	3478.3718673240637	-365.187353481077	-690.5143344001889	3495.7482485690934	-312.7107044741748	-556.463275822991	3607.8652585176687	-562.9021899587716	-279.4106973937153	3725.8975481464413	-661.0321626720097	-26.659381559757524	3716.3574481961195	-588.9999457886602	79.99829666115825	3774.2620116744524	-553.691825108357	103.24908476714516	3778.1273750836335	-559.2010110346828	94.04215176808688	3788.4204143783036	-591.3252263601906	-611.8313096373492	3797.3730459972016	-337.8772255707254	-378.86345196132174	3964.8201809608895	-289.3059301568352	-131.6885576673117	3950.929870627705	-209.53035701909454	-18.00571735934645	3966.340293713008	-214.4944046378229	6.552629570895108	3986.8740585011765	-202.47621643499747	-10.549268387464826	4002.9042340398873	-195.83032725680488
411	6.85	-71.20696882340482	3816.342392547926	-509.7268991489461	303.5646326885141	3983.1253018346542	-531.9976119614203	629.3535942491135	4123.221927314076	-526.5690298769872	726.2293357311127	4012.0551948466787	-503.25055523825193	737.9589529431202	4078.1334077717356	-611.1620133487396	663.3115515395931	4174.7202123948355	-517.5979200849416	-104.55765087436268	3910.5699327574357	-341.361822624625	260.629686534578	4026.2968529086884	-335.81499736210736	603.7531283605164	4252.98114149776	-358.6152464888681	672.7700798781833	4134.3341278658445	-238.24520390989036	648.6629496426907	4202.77924689881	-221.77294544466278	631.4601576183153	4292.518874270212	-385.0019095560753	-622.4772280037412	3677.0921909321523	-450.70894183600734	-877.3735146571913	3478.4808906346893	-365.3168563963797	-690.5450654970314	3495.7350572384526	-312.60218663644764	-556.4399939569829	3607.925910760244	-563.0293525543349	-279.40376702579925	3725.790975395206	-660.9958886242179	-26.68403738560825	3716.298181600471	-588.8986644925178	78.37731494677267	3756.923186823065	-539.9729724049243	103.26012182010606	3778.152368272561	-559.0861268322174	94.0771600812759	3788.3232652529637	-591.362195676379	-615.6355484499877	3823.146108157151	-342.76562359433274	-378.8026668759989	3964.731784044497	-289.2330490824472	-136.73914691195617	3947.0514692851716	-208.03027576727172	-18.15189150453596	3965.7464330640687	-214.2977990457417	6.528022677450203	3986.351501516387	-202.3280562815585	-15.573572188620158	3998.8917699837148	-194.2664757194005
